<mxfile host="app.diagrams.net" modified="2022-09-27T20:18:57.376Z" agent="5.0 (Windows NT 10.0; Win64; x64) AppleWebKit/537.36 (KHTML, like Gecko) Chrome/105.0.0.0 Safari/537.36" etag="GuM_RDqt_PWjJkTW90wl" version="20.3.6" type="github">
  <diagram id="R2lEEEUBdFMjLlhIrx00" name="Page-1">
    <mxGraphModel dx="2842" dy="1728" grid="1" gridSize="10" guides="1" tooltips="1" connect="1" arrows="1" fold="1" page="1" pageScale="1" pageWidth="1169" pageHeight="827" math="0" shadow="0" extFonts="Permanent Marker^https://fonts.googleapis.com/css?family=Permanent+Marker">
      <root>
        <mxCell id="0" />
        <mxCell id="1" parent="0" />
        <mxCell id="e1uVySr2OCQzvFWpXJg2-6" value="Professor" style="rounded=0;whiteSpace=wrap;html=1;" parent="1" vertex="1">
          <mxGeometry x="685" y="140" width="70" height="40" as="geometry" />
        </mxCell>
        <mxCell id="LbVnibOzP1Dr1l7WmBHD-3" style="rounded=0;orthogonalLoop=1;jettySize=auto;html=1;exitX=0;exitY=0.5;exitDx=0;exitDy=0;endArrow=none;endFill=0;entryX=1;entryY=0.5;entryDx=0;entryDy=0;" edge="1" parent="1" source="e1uVySr2OCQzvFWpXJg2-7" target="e1uVySr2OCQzvFWpXJg2-99">
          <mxGeometry relative="1" as="geometry">
            <mxPoint x="870" y="819.7272727272725" as="targetPoint" />
          </mxGeometry>
        </mxCell>
        <mxCell id="e1uVySr2OCQzvFWpXJg2-7" value="Campus" style="rounded=0;whiteSpace=wrap;html=1;" parent="1" vertex="1">
          <mxGeometry x="862.5000000000001" y="793" width="70" height="40" as="geometry" />
        </mxCell>
        <mxCell id="e1uVySr2OCQzvFWpXJg2-8" value="Centro" style="rounded=0;whiteSpace=wrap;html=1;" parent="1" vertex="1">
          <mxGeometry x="510" y="569.5" width="70" height="40" as="geometry" />
        </mxCell>
        <mxCell id="e1uVySr2OCQzvFWpXJg2-10" value="Local" style="rounded=0;whiteSpace=wrap;html=1;" parent="1" vertex="1">
          <mxGeometry x="864.7400000000001" y="1122" width="70" height="40" as="geometry" />
        </mxCell>
        <mxCell id="e1uVySr2OCQzvFWpXJg2-32" value="Nome" style="ellipse;whiteSpace=wrap;html=1;" parent="1" vertex="1">
          <mxGeometry x="840" y="50" width="60" height="40" as="geometry" />
        </mxCell>
        <mxCell id="e1uVySr2OCQzvFWpXJg2-33" value="prof_id" style="ellipse;whiteSpace=wrap;html=1;" parent="1" vertex="1">
          <mxGeometry x="610" y="40" width="60" height="40" as="geometry" />
        </mxCell>
        <mxCell id="e1uVySr2OCQzvFWpXJg2-34" value="E-mail" style="ellipse;whiteSpace=wrap;html=1;" parent="1" vertex="1">
          <mxGeometry x="850" y="100" width="60" height="40" as="geometry" />
        </mxCell>
        <mxCell id="e1uVySr2OCQzvFWpXJg2-35" value="Sexo" style="ellipse;whiteSpace=wrap;html=1;" parent="1" vertex="1">
          <mxGeometry x="850" y="160" width="60" height="40" as="geometry" />
        </mxCell>
        <mxCell id="e1uVySr2OCQzvFWpXJg2-36" value="Dat_nasc" style="ellipse;whiteSpace=wrap;html=1;" parent="1" vertex="1">
          <mxGeometry x="690" y="40" width="60" height="40" as="geometry" />
        </mxCell>
        <mxCell id="e1uVySr2OCQzvFWpXJg2-37" value="Formação" style="ellipse;whiteSpace=wrap;html=1;" parent="1" vertex="1">
          <mxGeometry x="770" y="40" width="60" height="40" as="geometry" />
        </mxCell>
        <mxCell id="e1uVySr2OCQzvFWpXJg2-38" value="ID" style="ellipse;whiteSpace=wrap;html=1;" parent="1" vertex="1">
          <mxGeometry x="983.3800000000001" y="840" width="60" height="40" as="geometry" />
        </mxCell>
        <mxCell id="e1uVySr2OCQzvFWpXJg2-39" value="Nome" style="ellipse;whiteSpace=wrap;html=1;" parent="1" vertex="1">
          <mxGeometry x="983.3800000000001" y="760" width="60" height="40" as="geometry" />
        </mxCell>
        <mxCell id="e1uVySr2OCQzvFWpXJg2-41" value="centro_id" style="ellipse;whiteSpace=wrap;html=1;" parent="1" vertex="1">
          <mxGeometry x="461.25" y="640" width="61.25" height="40" as="geometry" />
        </mxCell>
        <mxCell id="e1uVySr2OCQzvFWpXJg2-42" value="Nome" style="ellipse;whiteSpace=wrap;html=1;" parent="1" vertex="1">
          <mxGeometry x="536.25" y="640" width="60" height="40" as="geometry" />
        </mxCell>
        <mxCell id="e1uVySr2OCQzvFWpXJg2-48" value="ID" style="ellipse;whiteSpace=wrap;html=1;" parent="1" vertex="1">
          <mxGeometry x="996.6200000000001" y="1182" width="60" height="40" as="geometry" />
        </mxCell>
        <mxCell id="e1uVySr2OCQzvFWpXJg2-49" value="Nome" style="ellipse;whiteSpace=wrap;html=1;" parent="1" vertex="1">
          <mxGeometry x="996.6200000000001" y="1122" width="60" height="40" as="geometry" />
        </mxCell>
        <mxCell id="e1uVySr2OCQzvFWpXJg2-52" value="Lotação" style="ellipse;whiteSpace=wrap;html=1;" parent="1" vertex="1">
          <mxGeometry x="996.6200000000001" y="1062" width="60" height="40" as="geometry" />
        </mxCell>
        <mxCell id="e1uVySr2OCQzvFWpXJg2-53" value="Laboratório" style="rounded=0;whiteSpace=wrap;html=1;" parent="1" vertex="1">
          <mxGeometry x="665.62" y="1240" width="70" height="40" as="geometry" />
        </mxCell>
        <mxCell id="e1uVySr2OCQzvFWpXJg2-54" value="Auditório" style="rounded=0;whiteSpace=wrap;html=1;" parent="1" vertex="1">
          <mxGeometry x="665.62" y="1158.5" width="70" height="40" as="geometry" />
        </mxCell>
        <mxCell id="e1uVySr2OCQzvFWpXJg2-55" value="Sala de aula" style="rounded=0;whiteSpace=wrap;html=1;" parent="1" vertex="1">
          <mxGeometry x="665.62" y="1078.5" width="70" height="40" as="geometry" />
        </mxCell>
        <mxCell id="e1uVySr2OCQzvFWpXJg2-56" value="Bloco" style="rounded=0;whiteSpace=wrap;html=1;" parent="1" vertex="1">
          <mxGeometry x="665.62" y="998.5" width="70" height="40" as="geometry" />
        </mxCell>
        <mxCell id="e1uVySr2OCQzvFWpXJg2-57" value="É um" style="triangle;whiteSpace=wrap;html=1;flipH=1;" parent="1" vertex="1">
          <mxGeometry x="785.62" y="1117" width="40" height="50" as="geometry" />
        </mxCell>
        <mxCell id="e1uVySr2OCQzvFWpXJg2-64" value="Pertence&amp;nbsp;a" style="rhombus;whiteSpace=wrap;html=1;" parent="1" vertex="1">
          <mxGeometry x="120" y="240" width="80" height="80" as="geometry" />
        </mxCell>
        <mxCell id="e1uVySr2OCQzvFWpXJg2-65" value="Curso" style="rounded=0;whiteSpace=wrap;html=1;" parent="1" vertex="1">
          <mxGeometry x="321.25" y="260" width="70" height="40" as="geometry" />
        </mxCell>
        <mxCell id="e1uVySr2OCQzvFWpXJg2-66" value="curso_id" style="ellipse;whiteSpace=wrap;html=1;" parent="1" vertex="1">
          <mxGeometry x="370" y="346" width="60" height="40" as="geometry" />
        </mxCell>
        <mxCell id="e1uVySr2OCQzvFWpXJg2-69" value="Carga horária" style="ellipse;whiteSpace=wrap;html=1;" parent="1" vertex="1">
          <mxGeometry x="300" y="346" width="60" height="40" as="geometry" />
        </mxCell>
        <mxCell id="e1uVySr2OCQzvFWpXJg2-70" value="" style="endArrow=none;html=1;rounded=0;exitX=1;exitY=0.5;exitDx=0;exitDy=0;entryX=0;entryY=0.5;entryDx=0;entryDy=0;" parent="1" source="e1uVySr2OCQzvFWpXJg2-64" target="e1uVySr2OCQzvFWpXJg2-65" edge="1">
          <mxGeometry width="50" height="50" relative="1" as="geometry">
            <mxPoint x="400" y="400" as="sourcePoint" />
            <mxPoint x="450" y="350" as="targetPoint" />
          </mxGeometry>
        </mxCell>
        <mxCell id="e1uVySr2OCQzvFWpXJg2-71" value="" style="endArrow=none;html=1;rounded=0;exitX=0;exitY=0.5;exitDx=0;exitDy=0;endFill=0;startArrow=classic;startFill=1;strokeWidth=1;entryX=1;entryY=1;entryDx=0;entryDy=0;" parent="1" source="e1uVySr2OCQzvFWpXJg2-64" target="e1uVySr2OCQzvFWpXJg2-203" edge="1">
          <mxGeometry width="50" height="50" relative="1" as="geometry">
            <mxPoint x="400" y="400" as="sourcePoint" />
            <mxPoint x="210" y="390" as="targetPoint" />
          </mxGeometry>
        </mxCell>
        <mxCell id="e1uVySr2OCQzvFWpXJg2-84" value="" style="endArrow=none;html=1;rounded=0;strokeWidth=1;entryX=0;entryY=1;entryDx=0;entryDy=0;exitX=0.5;exitY=0;exitDx=0;exitDy=0;" parent="1" target="e1uVySr2OCQzvFWpXJg2-65" edge="1" source="e1uVySr2OCQzvFWpXJg2-166">
          <mxGeometry width="50" height="50" relative="1" as="geometry">
            <mxPoint x="310" y="460" as="sourcePoint" />
            <mxPoint x="350" y="484" as="targetPoint" />
          </mxGeometry>
        </mxCell>
        <mxCell id="e1uVySr2OCQzvFWpXJg2-85" value="" style="endArrow=none;html=1;rounded=0;strokeWidth=1;entryX=0.25;entryY=1;entryDx=0;entryDy=0;exitX=0.5;exitY=0;exitDx=0;exitDy=0;" parent="1" edge="1" target="e1uVySr2OCQzvFWpXJg2-65" source="e1uVySr2OCQzvFWpXJg2-69">
          <mxGeometry width="50" height="50" relative="1" as="geometry">
            <mxPoint x="330" y="510" as="sourcePoint" />
            <mxPoint x="340" y="474" as="targetPoint" />
          </mxGeometry>
        </mxCell>
        <mxCell id="e1uVySr2OCQzvFWpXJg2-86" value="" style="endArrow=none;html=1;rounded=0;strokeWidth=1;exitX=0.5;exitY=0;exitDx=0;exitDy=0;entryX=0.5;entryY=1;entryDx=0;entryDy=0;" parent="1" source="e1uVySr2OCQzvFWpXJg2-66" target="e1uVySr2OCQzvFWpXJg2-65" edge="1">
          <mxGeometry width="50" height="50" relative="1" as="geometry">
            <mxPoint x="320" y="504" as="sourcePoint" />
            <mxPoint x="350" y="484" as="targetPoint" />
          </mxGeometry>
        </mxCell>
        <mxCell id="e1uVySr2OCQzvFWpXJg2-88" value="Reitor" style="rounded=0;whiteSpace=wrap;html=1;" parent="1" vertex="1">
          <mxGeometry x="860" y="386" width="70" height="40" as="geometry" />
        </mxCell>
        <mxCell id="e1uVySr2OCQzvFWpXJg2-89" value="Data de admissão" style="ellipse;whiteSpace=wrap;html=1;" parent="1" vertex="1">
          <mxGeometry x="971" y="386" width="60" height="40" as="geometry" />
        </mxCell>
        <mxCell id="e1uVySr2OCQzvFWpXJg2-93" value="" style="endArrow=none;html=1;rounded=0;strokeWidth=1;exitX=0.5;exitY=0;exitDx=0;exitDy=0;entryX=0.75;entryY=1;entryDx=0;entryDy=0;" parent="1" source="e1uVySr2OCQzvFWpXJg2-42" target="e1uVySr2OCQzvFWpXJg2-8" edge="1">
          <mxGeometry width="50" height="50" relative="1" as="geometry">
            <mxPoint x="521.87" y="569.5" as="sourcePoint" />
            <mxPoint x="571.87" y="519.5" as="targetPoint" />
          </mxGeometry>
        </mxCell>
        <mxCell id="e1uVySr2OCQzvFWpXJg2-96" value="Pertence&amp;nbsp;a" style="rhombus;whiteSpace=wrap;html=1;" parent="1" vertex="1">
          <mxGeometry x="505" y="444" width="80" height="80" as="geometry" />
        </mxCell>
        <mxCell id="e1uVySr2OCQzvFWpXJg2-97" value="" style="endArrow=classic;html=1;rounded=0;strokeWidth=1;exitX=0.75;exitY=1;exitDx=0;exitDy=0;entryX=0.5;entryY=0;entryDx=0;entryDy=0;" parent="1" source="e1uVySr2OCQzvFWpXJg2-65" target="e1uVySr2OCQzvFWpXJg2-96" edge="1">
          <mxGeometry width="50" height="50" relative="1" as="geometry">
            <mxPoint x="520" y="720" as="sourcePoint" />
            <mxPoint x="570" y="670" as="targetPoint" />
          </mxGeometry>
        </mxCell>
        <mxCell id="e1uVySr2OCQzvFWpXJg2-98" value="" style="endArrow=none;html=1;rounded=0;strokeWidth=1;exitX=0.5;exitY=1;exitDx=0;exitDy=0;entryX=0.5;entryY=0;entryDx=0;entryDy=0;" parent="1" source="e1uVySr2OCQzvFWpXJg2-96" target="e1uVySr2OCQzvFWpXJg2-8" edge="1">
          <mxGeometry width="50" height="50" relative="1" as="geometry">
            <mxPoint x="520" y="720" as="sourcePoint" />
            <mxPoint x="570" y="670" as="targetPoint" />
          </mxGeometry>
        </mxCell>
        <mxCell id="e1uVySr2OCQzvFWpXJg2-99" value="Pertence&amp;nbsp;a" style="rhombus;whiteSpace=wrap;html=1;" parent="1" vertex="1">
          <mxGeometry x="640" y="773" width="80" height="80" as="geometry" />
        </mxCell>
        <mxCell id="e1uVySr2OCQzvFWpXJg2-100" value="" style="endArrow=classic;html=1;rounded=0;strokeWidth=1;entryX=0.5;entryY=0;entryDx=0;entryDy=0;exitX=1;exitY=0.75;exitDx=0;exitDy=0;" parent="1" source="e1uVySr2OCQzvFWpXJg2-8" target="e1uVySr2OCQzvFWpXJg2-99" edge="1">
          <mxGeometry width="50" height="50" relative="1" as="geometry">
            <mxPoint x="560" y="623" as="sourcePoint" />
            <mxPoint x="370.62" y="743" as="targetPoint" />
          </mxGeometry>
        </mxCell>
        <mxCell id="e1uVySr2OCQzvFWpXJg2-126" value="Possui" style="rhombus;whiteSpace=wrap;html=1;" parent="1" vertex="1">
          <mxGeometry x="521.25" y="120" width="75" height="76" as="geometry" />
        </mxCell>
        <mxCell id="e1uVySr2OCQzvFWpXJg2-127" value="" style="endArrow=none;html=1;rounded=0;strokeWidth=1;exitX=0;exitY=0.5;exitDx=0;exitDy=0;endFill=0;startArrow=classic;startFill=1;entryX=1;entryY=0.5;entryDx=0;entryDy=0;" parent="1" source="e1uVySr2OCQzvFWpXJg2-126" target="e1uVySr2OCQzvFWpXJg2-217" edge="1">
          <mxGeometry width="50" height="50" relative="1" as="geometry">
            <mxPoint x="550" y="160" as="sourcePoint" />
            <mxPoint x="610" y="150" as="targetPoint" />
          </mxGeometry>
        </mxCell>
        <mxCell id="e1uVySr2OCQzvFWpXJg2-128" value="" style="endArrow=none;html=1;rounded=0;strokeWidth=1;entryX=0;entryY=0.5;entryDx=0;entryDy=0;" parent="1" source="e1uVySr2OCQzvFWpXJg2-126" target="e1uVySr2OCQzvFWpXJg2-6" edge="1">
          <mxGeometry width="50" height="50" relative="1" as="geometry">
            <mxPoint x="810" y="160" as="sourcePoint" />
            <mxPoint x="677.5" y="160" as="targetPoint" />
          </mxGeometry>
        </mxCell>
        <mxCell id="e1uVySr2OCQzvFWpXJg2-129" value="" style="endArrow=none;html=1;rounded=0;strokeWidth=1;exitX=1;exitY=1;exitDx=0;exitDy=0;entryX=0.25;entryY=0;entryDx=0;entryDy=0;" parent="1" source="e1uVySr2OCQzvFWpXJg2-33" target="e1uVySr2OCQzvFWpXJg2-6" edge="1">
          <mxGeometry width="50" height="50" relative="1" as="geometry">
            <mxPoint x="750" y="230" as="sourcePoint" />
            <mxPoint x="800" y="180" as="targetPoint" />
          </mxGeometry>
        </mxCell>
        <mxCell id="e1uVySr2OCQzvFWpXJg2-130" value="" style="endArrow=none;html=1;rounded=0;strokeWidth=1;exitX=0.5;exitY=1;exitDx=0;exitDy=0;entryX=0.5;entryY=0;entryDx=0;entryDy=0;" parent="1" source="e1uVySr2OCQzvFWpXJg2-36" target="e1uVySr2OCQzvFWpXJg2-6" edge="1">
          <mxGeometry width="50" height="50" relative="1" as="geometry">
            <mxPoint x="671.2132034355964" y="84.14213562373084" as="sourcePoint" />
            <mxPoint x="695" y="150" as="targetPoint" />
          </mxGeometry>
        </mxCell>
        <mxCell id="e1uVySr2OCQzvFWpXJg2-131" value="" style="endArrow=none;html=1;rounded=0;strokeWidth=1;exitX=0;exitY=1;exitDx=0;exitDy=0;entryX=0.75;entryY=0;entryDx=0;entryDy=0;" parent="1" source="e1uVySr2OCQzvFWpXJg2-37" target="e1uVySr2OCQzvFWpXJg2-6" edge="1">
          <mxGeometry width="50" height="50" relative="1" as="geometry">
            <mxPoint x="730" y="90" as="sourcePoint" />
            <mxPoint x="720" y="150" as="targetPoint" />
          </mxGeometry>
        </mxCell>
        <mxCell id="e1uVySr2OCQzvFWpXJg2-132" value="" style="endArrow=none;html=1;rounded=0;strokeWidth=1;exitX=0;exitY=1;exitDx=0;exitDy=0;entryX=1;entryY=0;entryDx=0;entryDy=0;" parent="1" source="e1uVySr2OCQzvFWpXJg2-32" target="e1uVySr2OCQzvFWpXJg2-6" edge="1">
          <mxGeometry width="50" height="50" relative="1" as="geometry">
            <mxPoint x="788.7867965644036" y="84.14213562373106" as="sourcePoint" />
            <mxPoint x="730" y="150" as="targetPoint" />
          </mxGeometry>
        </mxCell>
        <mxCell id="e1uVySr2OCQzvFWpXJg2-133" value="" style="endArrow=none;html=1;rounded=0;strokeWidth=1;exitX=0;exitY=0.5;exitDx=0;exitDy=0;entryX=1;entryY=0.25;entryDx=0;entryDy=0;" parent="1" source="e1uVySr2OCQzvFWpXJg2-34" target="e1uVySr2OCQzvFWpXJg2-6" edge="1">
          <mxGeometry width="50" height="50" relative="1" as="geometry">
            <mxPoint x="868.7867965644036" y="84.14213562373084" as="sourcePoint" />
            <mxPoint x="765" y="150" as="targetPoint" />
          </mxGeometry>
        </mxCell>
        <mxCell id="e1uVySr2OCQzvFWpXJg2-134" value="" style="endArrow=none;html=1;rounded=0;strokeWidth=1;exitX=0;exitY=0.5;exitDx=0;exitDy=0;entryX=1;entryY=0.75;entryDx=0;entryDy=0;" parent="1" source="e1uVySr2OCQzvFWpXJg2-35" target="e1uVySr2OCQzvFWpXJg2-6" edge="1">
          <mxGeometry width="50" height="50" relative="1" as="geometry">
            <mxPoint x="860" y="130" as="sourcePoint" />
            <mxPoint x="765" y="160" as="targetPoint" />
          </mxGeometry>
        </mxCell>
        <mxCell id="e1uVySr2OCQzvFWpXJg2-135" value="Turma" style="rounded=0;whiteSpace=wrap;html=1;" parent="1" vertex="1">
          <mxGeometry x="350" y="-146" width="70" height="40" as="geometry" />
        </mxCell>
        <mxCell id="e1uVySr2OCQzvFWpXJg2-136" value="turma_id" style="ellipse;whiteSpace=wrap;html=1;" parent="1" vertex="1">
          <mxGeometry x="280" y="-180" width="60" height="40" as="geometry" />
        </mxCell>
        <mxCell id="e1uVySr2OCQzvFWpXJg2-137" value="Semestre" style="ellipse;whiteSpace=wrap;html=1;" parent="1" vertex="1">
          <mxGeometry x="430" y="-180" width="60" height="40" as="geometry" />
        </mxCell>
        <mxCell id="e1uVySr2OCQzvFWpXJg2-138" value="Estado" style="ellipse;whiteSpace=wrap;html=1;" parent="1" vertex="1">
          <mxGeometry x="280" y="-110" width="60" height="40" as="geometry" />
        </mxCell>
        <mxCell id="e1uVySr2OCQzvFWpXJg2-139" value="Horário e dias" style="ellipse;whiteSpace=wrap;html=1;" parent="1" vertex="1">
          <mxGeometry x="430" y="-110" width="60" height="40" as="geometry" />
        </mxCell>
        <mxCell id="e1uVySr2OCQzvFWpXJg2-140" value="Possui" style="rhombus;whiteSpace=wrap;html=1;" parent="1" vertex="1">
          <mxGeometry x="349.37" y="-70" width="70" height="70" as="geometry" />
        </mxCell>
        <mxCell id="e1uVySr2OCQzvFWpXJg2-146" value="" style="endArrow=none;html=1;rounded=0;strokeWidth=1;exitX=1;exitY=0;exitDx=0;exitDy=0;entryX=0;entryY=0.75;entryDx=0;entryDy=0;" parent="1" source="e1uVySr2OCQzvFWpXJg2-138" target="e1uVySr2OCQzvFWpXJg2-135" edge="1">
          <mxGeometry width="50" height="50" relative="1" as="geometry">
            <mxPoint x="550" y="-100" as="sourcePoint" />
            <mxPoint x="600" y="-150" as="targetPoint" />
          </mxGeometry>
        </mxCell>
        <mxCell id="e1uVySr2OCQzvFWpXJg2-147" value="" style="endArrow=none;html=1;rounded=0;strokeWidth=1;exitX=1;exitY=1;exitDx=0;exitDy=0;entryX=0;entryY=0.25;entryDx=0;entryDy=0;" parent="1" source="e1uVySr2OCQzvFWpXJg2-136" target="e1uVySr2OCQzvFWpXJg2-135" edge="1">
          <mxGeometry width="50" height="50" relative="1" as="geometry">
            <mxPoint x="341.0578015691533" y="-94.24498341442711" as="sourcePoint" />
            <mxPoint x="360" y="-106" as="targetPoint" />
          </mxGeometry>
        </mxCell>
        <mxCell id="e1uVySr2OCQzvFWpXJg2-148" value="" style="endArrow=none;html=1;rounded=0;strokeWidth=1;exitX=1;exitY=0.25;exitDx=0;exitDy=0;entryX=0;entryY=1;entryDx=0;entryDy=0;" parent="1" source="e1uVySr2OCQzvFWpXJg2-135" target="e1uVySr2OCQzvFWpXJg2-137" edge="1">
          <mxGeometry width="50" height="50" relative="1" as="geometry">
            <mxPoint x="341.0578015691533" y="-135.7550165855729" as="sourcePoint" />
            <mxPoint x="360" y="-126" as="targetPoint" />
          </mxGeometry>
        </mxCell>
        <mxCell id="e1uVySr2OCQzvFWpXJg2-149" value="" style="endArrow=none;html=1;rounded=0;strokeWidth=1;exitX=1;exitY=0.75;exitDx=0;exitDy=0;entryX=0;entryY=0;entryDx=0;entryDy=0;" parent="1" source="e1uVySr2OCQzvFWpXJg2-135" target="e1uVySr2OCQzvFWpXJg2-139" edge="1">
          <mxGeometry width="50" height="50" relative="1" as="geometry">
            <mxPoint x="430" y="-126" as="sourcePoint" />
            <mxPoint x="448.9421984308467" y="-135.75501658557278" as="targetPoint" />
          </mxGeometry>
        </mxCell>
        <mxCell id="e1uVySr2OCQzvFWpXJg2-151" value="Dirige" style="rhombus;whiteSpace=wrap;html=1;" parent="1" vertex="1">
          <mxGeometry x="762.5" y="551.5" width="75" height="76" as="geometry" />
        </mxCell>
        <mxCell id="e1uVySr2OCQzvFWpXJg2-153" value="" style="endArrow=none;html=1;rounded=0;strokeWidth=1;entryX=0;entryY=0.5;entryDx=0;entryDy=0;exitX=1;exitY=0.5;exitDx=0;exitDy=0;" parent="1" source="e1uVySr2OCQzvFWpXJg2-8" target="e1uVySr2OCQzvFWpXJg2-151" edge="1">
          <mxGeometry width="50" height="50" relative="1" as="geometry">
            <mxPoint x="570" y="580" as="sourcePoint" />
            <mxPoint x="890" y="490" as="targetPoint" />
          </mxGeometry>
        </mxCell>
        <mxCell id="e1uVySr2OCQzvFWpXJg2-155" value="Se situa em" style="rhombus;whiteSpace=wrap;html=1;" parent="1" vertex="1">
          <mxGeometry x="859.7400000000001" y="940" width="80" height="80" as="geometry" />
        </mxCell>
        <mxCell id="e1uVySr2OCQzvFWpXJg2-159" value="" style="endArrow=none;html=1;rounded=0;strokeWidth=1;exitX=1;exitY=0;exitDx=0;exitDy=0;entryX=0;entryY=0.5;entryDx=0;entryDy=0;" parent="1" source="e1uVySr2OCQzvFWpXJg2-7" target="e1uVySr2OCQzvFWpXJg2-39" edge="1">
          <mxGeometry width="50" height="50" relative="1" as="geometry">
            <mxPoint x="1043.38" y="810" as="sourcePoint" />
            <mxPoint x="1093.38" y="760" as="targetPoint" />
          </mxGeometry>
        </mxCell>
        <mxCell id="e1uVySr2OCQzvFWpXJg2-160" value="" style="endArrow=none;html=1;rounded=0;strokeWidth=1;exitX=1;exitY=1;exitDx=0;exitDy=0;entryX=0;entryY=0.5;entryDx=0;entryDy=0;" parent="1" source="e1uVySr2OCQzvFWpXJg2-7" target="e1uVySr2OCQzvFWpXJg2-38" edge="1">
          <mxGeometry width="50" height="50" relative="1" as="geometry">
            <mxPoint x="1163.38" y="810" as="sourcePoint" />
            <mxPoint x="1183.38" y="790" as="targetPoint" />
          </mxGeometry>
        </mxCell>
        <mxCell id="e1uVySr2OCQzvFWpXJg2-161" value="" style="endArrow=none;html=1;rounded=0;strokeWidth=1;exitX=0.25;exitY=1;exitDx=0;exitDy=0;entryX=1;entryY=0;entryDx=0;entryDy=0;" parent="1" source="e1uVySr2OCQzvFWpXJg2-8" target="e1uVySr2OCQzvFWpXJg2-41" edge="1">
          <mxGeometry width="50" height="50" relative="1" as="geometry">
            <mxPoint x="482.95103777184397" y="550.7297004959948" as="sourcePoint" />
            <mxPoint x="511.87" y="579.5" as="targetPoint" />
          </mxGeometry>
        </mxCell>
        <mxCell id="e1uVySr2OCQzvFWpXJg2-165" value="Pode ser" style="triangle;whiteSpace=wrap;html=1;flipH=1;direction=south;verticalAlign=top;labelBackgroundColor=default;" parent="1" vertex="1">
          <mxGeometry x="690" y="240" width="60" height="40" as="geometry" />
        </mxCell>
        <mxCell id="e1uVySr2OCQzvFWpXJg2-166" value="Nome" style="ellipse;whiteSpace=wrap;html=1;" parent="1" vertex="1">
          <mxGeometry x="230" y="346" width="60" height="40" as="geometry" />
        </mxCell>
        <mxCell id="e1uVySr2OCQzvFWpXJg2-168" value="Coordenador" style="rounded=0;whiteSpace=wrap;html=1;" parent="1" vertex="1">
          <mxGeometry x="670.62" y="386" width="70" height="40" as="geometry" />
        </mxCell>
        <mxCell id="e1uVySr2OCQzvFWpXJg2-171" value="" style="endArrow=none;html=1;rounded=0;strokeWidth=1;entryX=0.5;entryY=1;entryDx=0;entryDy=0;exitX=0;exitY=0.5;exitDx=0;exitDy=0;" parent="1" source="e1uVySr2OCQzvFWpXJg2-165" target="e1uVySr2OCQzvFWpXJg2-6" edge="1">
          <mxGeometry width="50" height="50" relative="1" as="geometry">
            <mxPoint x="990" y="410" as="sourcePoint" />
            <mxPoint x="1040" y="360" as="targetPoint" />
          </mxGeometry>
        </mxCell>
        <mxCell id="e1uVySr2OCQzvFWpXJg2-172" value="" style="endArrow=none;html=1;rounded=0;strokeWidth=1;entryX=0.5;entryY=1;entryDx=0;entryDy=0;exitX=0.5;exitY=0;exitDx=0;exitDy=0;" parent="1" source="e1uVySr2OCQzvFWpXJg2-168" target="e1uVySr2OCQzvFWpXJg2-165" edge="1">
          <mxGeometry width="50" height="50" relative="1" as="geometry">
            <mxPoint x="905" y="270" as="sourcePoint" />
            <mxPoint x="905" y="170" as="targetPoint" />
          </mxGeometry>
        </mxCell>
        <mxCell id="e1uVySr2OCQzvFWpXJg2-173" value="" style="endArrow=none;html=1;rounded=0;strokeWidth=1;entryX=1;entryY=0.5;entryDx=0;entryDy=0;exitX=0.5;exitY=0;exitDx=0;exitDy=0;" parent="1" target="e1uVySr2OCQzvFWpXJg2-165" edge="1" source="LbVnibOzP1Dr1l7WmBHD-1">
          <mxGeometry width="50" height="50" relative="1" as="geometry">
            <mxPoint x="895" y="400" as="sourcePoint" />
            <mxPoint x="905" y="300" as="targetPoint" />
          </mxGeometry>
        </mxCell>
        <mxCell id="e1uVySr2OCQzvFWpXJg2-174" value="" style="endArrow=none;html=1;rounded=0;strokeWidth=1;entryX=0.5;entryY=0;entryDx=0;entryDy=0;exitX=0;exitY=0;exitDx=0;exitDy=0;" parent="1" source="e1uVySr2OCQzvFWpXJg2-88" target="e1uVySr2OCQzvFWpXJg2-165" edge="1">
          <mxGeometry width="50" height="50" relative="1" as="geometry">
            <mxPoint x="890" y="414" as="sourcePoint" />
            <mxPoint x="905" y="310" as="targetPoint" />
          </mxGeometry>
        </mxCell>
        <mxCell id="e1uVySr2OCQzvFWpXJg2-175" value="" style="endArrow=none;html=1;rounded=0;strokeWidth=1;exitX=0.5;exitY=0;exitDx=0;exitDy=0;entryX=0.5;entryY=1;entryDx=0;entryDy=0;" parent="1" source="e1uVySr2OCQzvFWpXJg2-151" edge="1" target="LbVnibOzP1Dr1l7WmBHD-1">
          <mxGeometry width="50" height="50" relative="1" as="geometry">
            <mxPoint x="920" y="640" as="sourcePoint" />
            <mxPoint x="840" y="550" as="targetPoint" />
          </mxGeometry>
        </mxCell>
        <mxCell id="e1uVySr2OCQzvFWpXJg2-176" value="Coordena" style="rhombus;whiteSpace=wrap;html=1;" parent="1" vertex="1">
          <mxGeometry x="582.5" y="368" width="75" height="76" as="geometry" />
        </mxCell>
        <mxCell id="e1uVySr2OCQzvFWpXJg2-177" value="" style="endArrow=none;html=1;rounded=0;strokeWidth=1;exitX=0;exitY=0.5;exitDx=0;exitDy=0;entryX=1;entryY=0.75;entryDx=0;entryDy=0;" parent="1" source="e1uVySr2OCQzvFWpXJg2-176" target="e1uVySr2OCQzvFWpXJg2-65" edge="1">
          <mxGeometry width="50" height="50" relative="1" as="geometry">
            <mxPoint x="750" y="510" as="sourcePoint" />
            <mxPoint x="800" y="460" as="targetPoint" />
          </mxGeometry>
        </mxCell>
        <mxCell id="e1uVySr2OCQzvFWpXJg2-178" value="" style="endArrow=none;html=1;rounded=0;strokeWidth=1;exitX=1;exitY=0.5;exitDx=0;exitDy=0;entryX=0;entryY=0.5;entryDx=0;entryDy=0;" parent="1" source="e1uVySr2OCQzvFWpXJg2-176" target="e1uVySr2OCQzvFWpXJg2-168" edge="1">
          <mxGeometry width="50" height="50" relative="1" as="geometry">
            <mxPoint x="735" y="492" as="sourcePoint" />
            <mxPoint x="570" y="520" as="targetPoint" />
          </mxGeometry>
        </mxCell>
        <mxCell id="e1uVySr2OCQzvFWpXJg2-180" value="" style="endArrow=none;html=1;rounded=0;strokeWidth=1;exitX=0;exitY=0.5;exitDx=0;exitDy=0;entryX=1;entryY=0.5;entryDx=0;entryDy=0;" parent="1" source="e1uVySr2OCQzvFWpXJg2-89" target="e1uVySr2OCQzvFWpXJg2-88" edge="1">
          <mxGeometry width="50" height="50" relative="1" as="geometry">
            <mxPoint x="981" y="356" as="sourcePoint" />
            <mxPoint x="940" y="396" as="targetPoint" />
          </mxGeometry>
        </mxCell>
        <mxCell id="e1uVySr2OCQzvFWpXJg2-182" value="Possui" style="rhombus;whiteSpace=wrap;html=1;" parent="1" vertex="1">
          <mxGeometry x="860" y="654" width="75" height="76" as="geometry" />
        </mxCell>
        <mxCell id="e1uVySr2OCQzvFWpXJg2-183" value="" style="endArrow=none;html=1;rounded=0;strokeWidth=1;entryX=0.5;entryY=1;entryDx=0;entryDy=0;exitX=0.5;exitY=0;exitDx=0;exitDy=0;" parent="1" source="e1uVySr2OCQzvFWpXJg2-7" target="e1uVySr2OCQzvFWpXJg2-182" edge="1">
          <mxGeometry width="50" height="50" relative="1" as="geometry">
            <mxPoint x="885" y="760" as="sourcePoint" />
            <mxPoint x="935" y="710" as="targetPoint" />
          </mxGeometry>
        </mxCell>
        <mxCell id="e1uVySr2OCQzvFWpXJg2-184" value="" style="endArrow=none;html=1;rounded=0;strokeWidth=1;entryX=0.5;entryY=0;entryDx=0;entryDy=0;exitX=0.5;exitY=1;exitDx=0;exitDy=0;" parent="1" source="e1uVySr2OCQzvFWpXJg2-88" target="e1uVySr2OCQzvFWpXJg2-182" edge="1">
          <mxGeometry width="50" height="50" relative="1" as="geometry">
            <mxPoint x="1064" y="930.0000000000002" as="sourcePoint" />
            <mxPoint x="1103.75" y="717" as="targetPoint" />
          </mxGeometry>
        </mxCell>
        <mxCell id="e1uVySr2OCQzvFWpXJg2-185" value="" style="endArrow=none;html=1;rounded=0;strokeWidth=1;entryX=0.5;entryY=0;entryDx=0;entryDy=0;exitX=0.5;exitY=1;exitDx=0;exitDy=0;" parent="1" source="e1uVySr2OCQzvFWpXJg2-7" target="e1uVySr2OCQzvFWpXJg2-155" edge="1">
          <mxGeometry width="50" height="50" relative="1" as="geometry">
            <mxPoint x="959.3800000000001" y="1140" as="sourcePoint" />
            <mxPoint x="1009.3800000000001" y="1090" as="targetPoint" />
          </mxGeometry>
        </mxCell>
        <mxCell id="e1uVySr2OCQzvFWpXJg2-186" value="" style="endArrow=none;html=1;rounded=0;strokeWidth=1;entryX=0.5;entryY=1;entryDx=0;entryDy=0;exitX=0.5;exitY=0;exitDx=0;exitDy=0;" parent="1" source="e1uVySr2OCQzvFWpXJg2-10" target="e1uVySr2OCQzvFWpXJg2-155" edge="1">
          <mxGeometry width="50" height="50" relative="1" as="geometry">
            <mxPoint x="636.62" y="1140" as="sourcePoint" />
            <mxPoint x="686.62" y="1090" as="targetPoint" />
          </mxGeometry>
        </mxCell>
        <mxCell id="e1uVySr2OCQzvFWpXJg2-187" value="" style="endArrow=none;html=1;rounded=0;strokeWidth=1;entryX=0;entryY=0.5;entryDx=0;entryDy=0;" parent="1" target="e1uVySr2OCQzvFWpXJg2-10" edge="1">
          <mxGeometry width="50" height="50" relative="1" as="geometry">
            <mxPoint x="826.62" y="1142" as="sourcePoint" />
            <mxPoint x="686.62" y="1090" as="targetPoint" />
          </mxGeometry>
        </mxCell>
        <mxCell id="e1uVySr2OCQzvFWpXJg2-188" value="" style="endArrow=none;html=1;rounded=0;strokeWidth=1;entryX=0;entryY=0.5;entryDx=0;entryDy=0;exitX=1;exitY=0.5;exitDx=0;exitDy=0;" parent="1" source="e1uVySr2OCQzvFWpXJg2-55" target="e1uVySr2OCQzvFWpXJg2-57" edge="1">
          <mxGeometry width="50" height="50" relative="1" as="geometry">
            <mxPoint x="636.62" y="1140" as="sourcePoint" />
            <mxPoint x="686.62" y="1090" as="targetPoint" />
          </mxGeometry>
        </mxCell>
        <mxCell id="e1uVySr2OCQzvFWpXJg2-189" value="" style="endArrow=none;html=1;rounded=0;strokeWidth=1;entryX=0;entryY=0.5;entryDx=0;entryDy=0;exitX=1;exitY=0.5;exitDx=0;exitDy=0;" parent="1" source="e1uVySr2OCQzvFWpXJg2-54" target="e1uVySr2OCQzvFWpXJg2-57" edge="1">
          <mxGeometry width="50" height="50" relative="1" as="geometry">
            <mxPoint x="636.62" y="1140" as="sourcePoint" />
            <mxPoint x="686.62" y="1090" as="targetPoint" />
          </mxGeometry>
        </mxCell>
        <mxCell id="e1uVySr2OCQzvFWpXJg2-190" value="" style="endArrow=none;html=1;rounded=0;strokeWidth=1;entryX=0.5;entryY=1;entryDx=0;entryDy=0;exitX=1;exitY=0;exitDx=0;exitDy=0;" parent="1" source="e1uVySr2OCQzvFWpXJg2-53" target="e1uVySr2OCQzvFWpXJg2-57" edge="1">
          <mxGeometry width="50" height="50" relative="1" as="geometry">
            <mxPoint x="745.62" y="1188.5" as="sourcePoint" />
            <mxPoint x="795.62" y="1152.0000000000002" as="targetPoint" />
          </mxGeometry>
        </mxCell>
        <mxCell id="e1uVySr2OCQzvFWpXJg2-191" value="" style="endArrow=none;html=1;rounded=0;strokeWidth=1;entryX=0.5;entryY=0;entryDx=0;entryDy=0;exitX=1;exitY=1;exitDx=0;exitDy=0;" parent="1" source="e1uVySr2OCQzvFWpXJg2-56" target="e1uVySr2OCQzvFWpXJg2-57" edge="1">
          <mxGeometry width="50" height="50" relative="1" as="geometry">
            <mxPoint x="745.62" y="1255.5" as="sourcePoint" />
            <mxPoint x="815.62" y="1164.5000000000002" as="targetPoint" />
          </mxGeometry>
        </mxCell>
        <mxCell id="e1uVySr2OCQzvFWpXJg2-192" value="" style="endArrow=none;html=1;rounded=0;strokeWidth=1;entryX=1;entryY=0;entryDx=0;entryDy=0;exitX=0;exitY=1;exitDx=0;exitDy=0;" parent="1" source="e1uVySr2OCQzvFWpXJg2-52" target="e1uVySr2OCQzvFWpXJg2-10" edge="1">
          <mxGeometry width="50" height="50" relative="1" as="geometry">
            <mxPoint x="835.6200000000001" y="1120" as="sourcePoint" />
            <mxPoint x="885.6200000000001" y="1070" as="targetPoint" />
          </mxGeometry>
        </mxCell>
        <mxCell id="e1uVySr2OCQzvFWpXJg2-193" value="" style="endArrow=none;html=1;rounded=0;strokeWidth=1;entryX=0;entryY=0.5;entryDx=0;entryDy=0;exitX=1;exitY=0.5;exitDx=0;exitDy=0;" parent="1" source="e1uVySr2OCQzvFWpXJg2-10" target="e1uVySr2OCQzvFWpXJg2-49" edge="1">
          <mxGeometry width="50" height="50" relative="1" as="geometry">
            <mxPoint x="835.6200000000001" y="1120" as="sourcePoint" />
            <mxPoint x="885.6200000000001" y="1070" as="targetPoint" />
          </mxGeometry>
        </mxCell>
        <mxCell id="e1uVySr2OCQzvFWpXJg2-194" value="" style="endArrow=none;html=1;rounded=0;strokeWidth=1;entryX=0;entryY=0;entryDx=0;entryDy=0;exitX=1;exitY=1;exitDx=0;exitDy=0;" parent="1" source="e1uVySr2OCQzvFWpXJg2-10" target="e1uVySr2OCQzvFWpXJg2-48" edge="1">
          <mxGeometry width="50" height="50" relative="1" as="geometry">
            <mxPoint x="835.6200000000001" y="1120" as="sourcePoint" />
            <mxPoint x="885.6200000000001" y="1070" as="targetPoint" />
          </mxGeometry>
        </mxCell>
        <mxCell id="e1uVySr2OCQzvFWpXJg2-195" value="Bloco" style="ellipse;whiteSpace=wrap;html=1;" parent="1" vertex="1">
          <mxGeometry x="555.62" y="1078.5" width="60" height="40" as="geometry" />
        </mxCell>
        <mxCell id="e1uVySr2OCQzvFWpXJg2-196" value="Bloco" style="ellipse;whiteSpace=wrap;html=1;" parent="1" vertex="1">
          <mxGeometry x="555.62" y="1158.5" width="60" height="40" as="geometry" />
        </mxCell>
        <mxCell id="e1uVySr2OCQzvFWpXJg2-197" value="Bloco" style="ellipse;whiteSpace=wrap;html=1;" parent="1" vertex="1">
          <mxGeometry x="555.62" y="1240" width="60" height="40" as="geometry" />
        </mxCell>
        <mxCell id="e1uVySr2OCQzvFWpXJg2-198" value="" style="endArrow=none;html=1;rounded=0;strokeWidth=1;exitX=1;exitY=0.5;exitDx=0;exitDy=0;entryX=0;entryY=0.5;entryDx=0;entryDy=0;" parent="1" source="e1uVySr2OCQzvFWpXJg2-195" target="e1uVySr2OCQzvFWpXJg2-55" edge="1">
          <mxGeometry width="50" height="50" relative="1" as="geometry">
            <mxPoint x="665.62" y="1010" as="sourcePoint" />
            <mxPoint x="715.62" y="960" as="targetPoint" />
          </mxGeometry>
        </mxCell>
        <mxCell id="e1uVySr2OCQzvFWpXJg2-199" value="" style="endArrow=none;html=1;rounded=0;strokeWidth=1;exitX=1;exitY=0.5;exitDx=0;exitDy=0;entryX=0;entryY=0.5;entryDx=0;entryDy=0;" parent="1" edge="1">
          <mxGeometry width="50" height="50" relative="1" as="geometry">
            <mxPoint x="615.62" y="1177.97" as="sourcePoint" />
            <mxPoint x="665.62" y="1177.97" as="targetPoint" />
          </mxGeometry>
        </mxCell>
        <mxCell id="e1uVySr2OCQzvFWpXJg2-200" value="" style="endArrow=none;html=1;rounded=0;strokeWidth=1;exitX=1;exitY=0.5;exitDx=0;exitDy=0;entryX=0;entryY=0.5;entryDx=0;entryDy=0;" parent="1" edge="1">
          <mxGeometry width="50" height="50" relative="1" as="geometry">
            <mxPoint x="615.62" y="1259.47" as="sourcePoint" />
            <mxPoint x="665.62" y="1259.47" as="targetPoint" />
          </mxGeometry>
        </mxCell>
        <mxCell id="e1uVySr2OCQzvFWpXJg2-203" value="Alunos" style="rounded=0;whiteSpace=wrap;html=1;" parent="1" vertex="1">
          <mxGeometry x="-20.000000000000007" y="136" width="70" height="40" as="geometry" />
        </mxCell>
        <mxCell id="e1uVySr2OCQzvFWpXJg2-204" value="Nome" style="ellipse;whiteSpace=wrap;html=1;" parent="1" vertex="1">
          <mxGeometry x="-140" y="96" width="60" height="40" as="geometry" />
        </mxCell>
        <mxCell id="e1uVySr2OCQzvFWpXJg2-205" value="Matricula" style="ellipse;whiteSpace=wrap;html=1;" parent="1" vertex="1">
          <mxGeometry x="-140" y="36" width="60" height="40" as="geometry" />
        </mxCell>
        <mxCell id="e1uVySr2OCQzvFWpXJg2-206" value="E-mail" style="ellipse;whiteSpace=wrap;html=1;" parent="1" vertex="1">
          <mxGeometry x="-140" y="156" width="60" height="40" as="geometry" />
        </mxCell>
        <mxCell id="e1uVySr2OCQzvFWpXJg2-207" value="Dat_nasc" style="ellipse;whiteSpace=wrap;html=1;" parent="1" vertex="1">
          <mxGeometry x="-140" y="216" width="60" height="40" as="geometry" />
        </mxCell>
        <mxCell id="e1uVySr2OCQzvFWpXJg2-208" value="Sexo" style="ellipse;whiteSpace=wrap;html=1;" parent="1" vertex="1">
          <mxGeometry x="19.999999999999993" y="36" width="60" height="40" as="geometry" />
        </mxCell>
        <mxCell id="e1uVySr2OCQzvFWpXJg2-209" value="Endereço" style="ellipse;whiteSpace=wrap;html=1;" parent="1" vertex="1">
          <mxGeometry x="-60.00000000000001" y="36" width="60" height="40" as="geometry" />
        </mxCell>
        <mxCell id="e1uVySr2OCQzvFWpXJg2-210" value="" style="endArrow=none;html=1;rounded=0;exitX=1;exitY=0.5;exitDx=0;exitDy=0;entryX=0;entryY=0.75;entryDx=0;entryDy=0;" parent="1" source="e1uVySr2OCQzvFWpXJg2-206" target="e1uVySr2OCQzvFWpXJg2-203" edge="1">
          <mxGeometry width="50" height="50" relative="1" as="geometry">
            <mxPoint x="70" y="226" as="sourcePoint" />
            <mxPoint x="120" y="176" as="targetPoint" />
          </mxGeometry>
        </mxCell>
        <mxCell id="e1uVySr2OCQzvFWpXJg2-211" value="" style="endArrow=none;html=1;rounded=0;exitX=1;exitY=0.5;exitDx=0;exitDy=0;entryX=0;entryY=0.25;entryDx=0;entryDy=0;" parent="1" source="e1uVySr2OCQzvFWpXJg2-204" target="e1uVySr2OCQzvFWpXJg2-203" edge="1">
          <mxGeometry width="50" height="50" relative="1" as="geometry">
            <mxPoint x="70" y="226" as="sourcePoint" />
            <mxPoint x="120" y="176" as="targetPoint" />
          </mxGeometry>
        </mxCell>
        <mxCell id="e1uVySr2OCQzvFWpXJg2-212" value="" style="endArrow=none;html=1;rounded=0;exitX=1;exitY=0.5;exitDx=0;exitDy=0;entryX=0;entryY=1;entryDx=0;entryDy=0;" parent="1" source="e1uVySr2OCQzvFWpXJg2-207" target="e1uVySr2OCQzvFWpXJg2-203" edge="1">
          <mxGeometry width="50" height="50" relative="1" as="geometry">
            <mxPoint x="70" y="226" as="sourcePoint" />
            <mxPoint x="120" y="176" as="targetPoint" />
          </mxGeometry>
        </mxCell>
        <mxCell id="e1uVySr2OCQzvFWpXJg2-213" value="" style="endArrow=none;html=1;rounded=0;exitX=1;exitY=1;exitDx=0;exitDy=0;entryX=0;entryY=0;entryDx=0;entryDy=0;" parent="1" source="e1uVySr2OCQzvFWpXJg2-205" target="e1uVySr2OCQzvFWpXJg2-203" edge="1">
          <mxGeometry width="50" height="50" relative="1" as="geometry">
            <mxPoint x="70" y="226" as="sourcePoint" />
            <mxPoint x="120" y="176" as="targetPoint" />
          </mxGeometry>
        </mxCell>
        <mxCell id="e1uVySr2OCQzvFWpXJg2-214" value="" style="endArrow=none;html=1;rounded=0;exitX=0.5;exitY=1;exitDx=0;exitDy=0;entryX=0.25;entryY=0;entryDx=0;entryDy=0;" parent="1" source="e1uVySr2OCQzvFWpXJg2-209" target="e1uVySr2OCQzvFWpXJg2-203" edge="1">
          <mxGeometry width="50" height="50" relative="1" as="geometry">
            <mxPoint x="70" y="226" as="sourcePoint" />
            <mxPoint x="120" y="176" as="targetPoint" />
          </mxGeometry>
        </mxCell>
        <mxCell id="e1uVySr2OCQzvFWpXJg2-215" value="" style="endArrow=none;html=1;rounded=0;exitX=0.5;exitY=1;exitDx=0;exitDy=0;entryX=0.75;entryY=0;entryDx=0;entryDy=0;" parent="1" source="e1uVySr2OCQzvFWpXJg2-208" target="e1uVySr2OCQzvFWpXJg2-203" edge="1">
          <mxGeometry width="50" height="50" relative="1" as="geometry">
            <mxPoint x="70" y="226" as="sourcePoint" />
            <mxPoint x="120" y="176" as="targetPoint" />
          </mxGeometry>
        </mxCell>
        <mxCell id="e1uVySr2OCQzvFWpXJg2-216" value="Estão em" style="rhombus;whiteSpace=wrap;html=1;" parent="1" vertex="1">
          <mxGeometry x="165" y="118" width="75" height="76" as="geometry" />
        </mxCell>
        <mxCell id="e1uVySr2OCQzvFWpXJg2-217" value="Disciplinas" style="rounded=0;whiteSpace=wrap;html=1;" parent="1" vertex="1">
          <mxGeometry x="350" y="136" width="70" height="40" as="geometry" />
        </mxCell>
        <mxCell id="e1uVySr2OCQzvFWpXJg2-218" value="disciplina_id" style="ellipse;whiteSpace=wrap;html=1;" parent="1" vertex="1">
          <mxGeometry x="300" y="36" width="76.25" height="40" as="geometry" />
        </mxCell>
        <mxCell id="e1uVySr2OCQzvFWpXJg2-219" value="Ementa" style="ellipse;whiteSpace=wrap;html=1;" parent="1" vertex="1">
          <mxGeometry x="391.25" y="36" width="60" height="40" as="geometry" />
        </mxCell>
        <mxCell id="e1uVySr2OCQzvFWpXJg2-220" value="Carga horária" style="ellipse;whiteSpace=wrap;html=1;" parent="1" vertex="1">
          <mxGeometry x="461.25" y="36" width="60" height="40" as="geometry" />
        </mxCell>
        <mxCell id="e1uVySr2OCQzvFWpXJg2-221" value="Nome" style="ellipse;whiteSpace=wrap;html=1;" parent="1" vertex="1">
          <mxGeometry x="230" y="36" width="60" height="40" as="geometry" />
        </mxCell>
        <mxCell id="e1uVySr2OCQzvFWpXJg2-222" value="" style="endArrow=none;html=1;rounded=0;strokeWidth=1;exitX=1.013;exitY=0.606;exitDx=0;exitDy=0;entryX=0.088;entryY=0.575;entryDx=0;entryDy=0;entryPerimeter=0;exitPerimeter=0;" parent="1" source="e1uVySr2OCQzvFWpXJg2-203" target="e1uVySr2OCQzvFWpXJg2-216" edge="1">
          <mxGeometry width="50" height="50" relative="1" as="geometry">
            <mxPoint x="200" y="326" as="sourcePoint" />
            <mxPoint x="250" y="276" as="targetPoint" />
          </mxGeometry>
        </mxCell>
        <mxCell id="e1uVySr2OCQzvFWpXJg2-223" value="" style="endArrow=none;html=1;rounded=0;strokeWidth=1;exitX=0.993;exitY=0.385;exitDx=0;exitDy=0;exitPerimeter=0;" parent="1" source="e1uVySr2OCQzvFWpXJg2-203" edge="1">
          <mxGeometry width="50" height="50" relative="1" as="geometry">
            <mxPoint x="60" y="150" as="sourcePoint" />
            <mxPoint x="170" y="152" as="targetPoint" />
          </mxGeometry>
        </mxCell>
        <mxCell id="e1uVySr2OCQzvFWpXJg2-224" value="" style="endArrow=none;html=1;rounded=0;strokeWidth=1;entryX=1;entryY=0.5;entryDx=0;entryDy=0;exitX=0;exitY=0.5;exitDx=0;exitDy=0;" parent="1" source="e1uVySr2OCQzvFWpXJg2-217" target="e1uVySr2OCQzvFWpXJg2-216" edge="1">
          <mxGeometry width="50" height="50" relative="1" as="geometry">
            <mxPoint x="240" y="326" as="sourcePoint" />
            <mxPoint x="290" y="276" as="targetPoint" />
          </mxGeometry>
        </mxCell>
        <mxCell id="e1uVySr2OCQzvFWpXJg2-225" value="" style="endArrow=none;html=1;rounded=0;strokeWidth=1;exitX=1;exitY=1;exitDx=0;exitDy=0;entryX=0;entryY=0;entryDx=0;entryDy=0;" parent="1" source="e1uVySr2OCQzvFWpXJg2-221" target="e1uVySr2OCQzvFWpXJg2-217" edge="1">
          <mxGeometry width="50" height="50" relative="1" as="geometry">
            <mxPoint x="430" y="226" as="sourcePoint" />
            <mxPoint x="480" y="176" as="targetPoint" />
          </mxGeometry>
        </mxCell>
        <mxCell id="e1uVySr2OCQzvFWpXJg2-226" value="" style="endArrow=none;html=1;rounded=0;strokeWidth=1;exitX=0.5;exitY=1;exitDx=0;exitDy=0;entryX=0.25;entryY=0;entryDx=0;entryDy=0;" parent="1" source="e1uVySr2OCQzvFWpXJg2-218" target="e1uVySr2OCQzvFWpXJg2-217" edge="1">
          <mxGeometry width="50" height="50" relative="1" as="geometry">
            <mxPoint x="301.21320343559637" y="80.14213562373095" as="sourcePoint" />
            <mxPoint x="377.5" y="146" as="targetPoint" />
          </mxGeometry>
        </mxCell>
        <mxCell id="e1uVySr2OCQzvFWpXJg2-227" value="" style="endArrow=none;html=1;rounded=0;strokeWidth=1;exitX=0.5;exitY=1;exitDx=0;exitDy=0;entryX=0.75;entryY=0;entryDx=0;entryDy=0;" parent="1" source="e1uVySr2OCQzvFWpXJg2-219" target="e1uVySr2OCQzvFWpXJg2-217" edge="1">
          <mxGeometry width="50" height="50" relative="1" as="geometry">
            <mxPoint x="356.25" y="86" as="sourcePoint" />
            <mxPoint x="377.5" y="146" as="targetPoint" />
          </mxGeometry>
        </mxCell>
        <mxCell id="e1uVySr2OCQzvFWpXJg2-228" value="" style="endArrow=none;html=1;rounded=0;strokeWidth=1;exitX=0;exitY=1;exitDx=0;exitDy=0;entryX=1;entryY=0;entryDx=0;entryDy=0;" parent="1" source="e1uVySr2OCQzvFWpXJg2-220" target="e1uVySr2OCQzvFWpXJg2-217" edge="1">
          <mxGeometry width="50" height="50" relative="1" as="geometry">
            <mxPoint x="431.25" y="86" as="sourcePoint" />
            <mxPoint x="412.5" y="146" as="targetPoint" />
          </mxGeometry>
        </mxCell>
        <mxCell id="e1uVySr2OCQzvFWpXJg2-235" value="Avaliações" style="rounded=0;whiteSpace=wrap;html=1;" parent="1" vertex="1">
          <mxGeometry x="-20" y="350" width="70" height="40" as="geometry" />
        </mxCell>
        <mxCell id="e1uVySr2OCQzvFWpXJg2-236" value="Realiza" style="rhombus;whiteSpace=wrap;html=1;labelBackgroundColor=default;fillColor=none;" parent="1" vertex="1">
          <mxGeometry x="-25" y="210" width="80" height="80" as="geometry" />
        </mxCell>
        <mxCell id="e1uVySr2OCQzvFWpXJg2-237" value="" style="endArrow=classic;html=1;rounded=0;strokeWidth=1;exitX=0.5;exitY=0;exitDx=0;exitDy=0;entryX=0.5;entryY=1;entryDx=0;entryDy=0;" parent="1" source="e1uVySr2OCQzvFWpXJg2-235" target="e1uVySr2OCQzvFWpXJg2-236" edge="1">
          <mxGeometry width="50" height="50" relative="1" as="geometry">
            <mxPoint x="125" y="110" as="sourcePoint" />
            <mxPoint x="175" y="60" as="targetPoint" />
          </mxGeometry>
        </mxCell>
        <mxCell id="e1uVySr2OCQzvFWpXJg2-240" value="Nota" style="ellipse;whiteSpace=wrap;html=1;" parent="1" vertex="1">
          <mxGeometry x="-15" y="430" width="60" height="40" as="geometry" />
        </mxCell>
        <mxCell id="e1uVySr2OCQzvFWpXJg2-241" value="" style="endArrow=none;html=1;rounded=0;strokeWidth=1;exitX=0.5;exitY=1;exitDx=0;exitDy=0;entryX=0.5;entryY=0;entryDx=0;entryDy=0;" parent="1" source="e1uVySr2OCQzvFWpXJg2-235" target="e1uVySr2OCQzvFWpXJg2-240" edge="1">
          <mxGeometry width="50" height="50" relative="1" as="geometry">
            <mxPoint x="35" y="240" as="sourcePoint" />
            <mxPoint x="85" y="190" as="targetPoint" />
          </mxGeometry>
        </mxCell>
        <mxCell id="e1uVySr2OCQzvFWpXJg2-242" value="" style="endArrow=none;html=1;rounded=0;strokeWidth=1;exitX=0.5;exitY=0;exitDx=0;exitDy=0;entryX=0.5;entryY=1;entryDx=0;entryDy=0;" parent="1" source="e1uVySr2OCQzvFWpXJg2-217" target="e1uVySr2OCQzvFWpXJg2-140" edge="1">
          <mxGeometry width="50" height="50" relative="1" as="geometry">
            <mxPoint x="384.37000000000046" y="136.00000000000023" as="sourcePoint" />
            <mxPoint x="689.37" y="26" as="targetPoint" />
          </mxGeometry>
        </mxCell>
        <mxCell id="e1uVySr2OCQzvFWpXJg2-243" value="" style="endArrow=none;html=1;rounded=0;strokeWidth=1;exitX=0.5;exitY=0;exitDx=0;exitDy=0;entryX=0.5;entryY=1;entryDx=0;entryDy=0;" parent="1" source="e1uVySr2OCQzvFWpXJg2-140" target="e1uVySr2OCQzvFWpXJg2-135" edge="1">
          <mxGeometry width="50" height="50" relative="1" as="geometry">
            <mxPoint x="394.37000000000046" y="170.00000000000023" as="sourcePoint" />
            <mxPoint x="394.37000000000046" y="9.999999999999773" as="targetPoint" />
          </mxGeometry>
        </mxCell>
        <mxCell id="e1uVySr2OCQzvFWpXJg2-244" value="Ensina em" style="rhombus;whiteSpace=wrap;html=1;" parent="1" vertex="1">
          <mxGeometry x="522.5" y="242" width="75" height="76" as="geometry" />
        </mxCell>
        <mxCell id="e1uVySr2OCQzvFWpXJg2-246" value="" style="endArrow=none;html=1;rounded=0;strokeWidth=1;entryX=0;entryY=0.75;entryDx=0;entryDy=0;exitX=1;exitY=0;exitDx=0;exitDy=0;" parent="1" source="e1uVySr2OCQzvFWpXJg2-244" target="e1uVySr2OCQzvFWpXJg2-6" edge="1">
          <mxGeometry width="50" height="50" relative="1" as="geometry">
            <mxPoint x="559" y="240" as="sourcePoint" />
            <mxPoint x="880" y="270" as="targetPoint" />
          </mxGeometry>
        </mxCell>
        <mxCell id="e1uVySr2OCQzvFWpXJg2-247" value="" style="endArrow=none;html=1;rounded=0;strokeWidth=1;exitX=0.814;exitY=0.307;exitDx=0;exitDy=0;entryX=0;entryY=1;entryDx=0;entryDy=0;exitPerimeter=0;" parent="1" source="e1uVySr2OCQzvFWpXJg2-244" target="e1uVySr2OCQzvFWpXJg2-6" edge="1">
          <mxGeometry width="50" height="50" relative="1" as="geometry">
            <mxPoint x="830" y="320" as="sourcePoint" />
            <mxPoint x="880" y="270" as="targetPoint" />
          </mxGeometry>
        </mxCell>
        <mxCell id="e1uVySr2OCQzvFWpXJg2-248" value="" style="endArrow=none;html=1;rounded=0;strokeWidth=1;exitX=1;exitY=0.5;exitDx=0;exitDy=0;entryX=0;entryY=0.5;entryDx=0;entryDy=0;" parent="1" source="e1uVySr2OCQzvFWpXJg2-65" target="e1uVySr2OCQzvFWpXJg2-244" edge="1">
          <mxGeometry width="50" height="50" relative="1" as="geometry">
            <mxPoint x="830" y="320" as="sourcePoint" />
            <mxPoint x="880" y="270" as="targetPoint" />
          </mxGeometry>
        </mxCell>
        <mxCell id="e1uVySr2OCQzvFWpXJg2-259" value="" style="endArrow=none;html=1;rounded=0;strokeWidth=1;exitX=0.5;exitY=1;exitDx=0;exitDy=0;entryX=0.5;entryY=0;entryDx=0;entryDy=0;" parent="1" target="e1uVySr2OCQzvFWpXJg2-236" edge="1">
          <mxGeometry width="50" height="50" relative="1" as="geometry">
            <mxPoint x="15" y="176" as="sourcePoint" />
            <mxPoint x="155" y="256" as="targetPoint" />
          </mxGeometry>
        </mxCell>
        <mxCell id="LbVnibOzP1Dr1l7WmBHD-1" value="Diretor" style="rounded=0;whiteSpace=wrap;html=1;" vertex="1" parent="1">
          <mxGeometry x="765" y="386" width="70" height="40" as="geometry" />
        </mxCell>
      </root>
    </mxGraphModel>
  </diagram>
</mxfile>
